<svg xmlns="http://www.w3.org/2000/svg" xmlns:xlink="http://www.w3.org/1999/xlink" width="500" zoomAndPan="magnify" viewBox="0 0 375 374.999991" height="500" preserveAspectRatio="xMidYMid meet" version="1.0"><defs><clipPath id="3149103a2e"><path d="M 57.113281 27.988281 L 318.113281 27.988281 L 318.113281 346.738281 L 57.113281 346.738281 Z M 57.113281 27.988281 " clip-rule="nonzero"/></clipPath></defs><g clip-path="url(#3149103a2e)"><path fill="#ff0066" d="M 124.648438 300.417969 C 113.980469 300.34375 105.152344 292.511719 103.558594 282.292969 C 103.390625 281.203125 103.300781 280.09375 103.300781 278.960938 C 103.300781 277.832031 103.390625 276.714844 103.558594 275.632812 L 103.558594 74.308594 L 114.84375 74.308594 C 126.597656 74.390625 136.109375 83.886719 136.1875 95.617188 L 136.1875 112.226562 L 182.589844 112.226562 L 182.589844 95.769531 C 182.589844 58.335938 152.191406 27.992188 114.695312 27.992188 L 57.160156 27.992188 L 57.160156 284.90625 C 60.167969 319.46875 89.160156 346.605469 124.535156 346.742188 L 318.070312 346.742188 L 318.070312 200.003906 C 318.070312 161.929688 287.160156 131.070312 249.015625 131.070312 L 136.191406 131.070312 L 136.191406 282.300781 L 251.226562 282.300781 L 251.226562 199.964844 L 204.824219 199.964844 L 204.824219 235.980469 L 182.59375 235.980469 L 182.59375 177.390625 L 248.515625 177.390625 L 249.015625 177.382812 L 249.519531 177.390625 C 261.628906 177.652344 271.402344 187.410156 271.667969 199.5 L 271.675781 200 L 271.667969 200.503906 L 271.667969 300.417969 L 124.953125 300.417969 C 124.902344 300.421875 124.851562 300.421875 124.796875 300.421875 C 124.746094 300.421875 124.699219 300.421875 124.648438 300.417969 Z M 124.648438 300.417969 " fill-opacity="1" fill-rule="evenodd"/></g></svg>